<?xml version="1.0" encoding="UTF-8" standalone="no"?>
<svg
   xmlns:dc="http://purl.org/dc/elements/1.1/"
   xmlns:cc="http://creativecommons.org/ns#"
   xmlns:rdf="http://www.w3.org/1999/02/22-rdf-syntax-ns#"
   xmlns:svg="http://www.w3.org/2000/svg"
   xmlns="http://www.w3.org/2000/svg"
   xmlns:sodipodi="http://sodipodi.sourceforge.net/DTD/sodipodi-0.dtd"
   xmlns:inkscape="http://www.inkscape.org/namespaces/inkscape"
   version="1.1"
   id="envoyer-logo-on-dark"
   x="0px"
   y="0px"
   viewBox="0 0 219.9 56.3"
   enable-background="new 0 0 219.9 56.3"
   xml:space="preserve"
   sodipodi:docname="envoyer s pozadím.svg"
   width="219.89999"
   height="56.299999"
   inkscape:version="0.92.2 5c3e80d, 2017-08-06"
   inkscape:export-filename="/Users/Glutexo/Vývoj/_Práce/thepay/Repozitáře/laravel-prezentace/Média/envoyer s pozadím.png"
   inkscape:export-xdpi="150"
   inkscape:export-ydpi="150"><metadata
     id="metadata58"><rdf:RDF><cc:Work
         rdf:about=""><dc:format>image/svg+xml</dc:format><dc:type
           rdf:resource="http://purl.org/dc/dcmitype/StillImage" /><dc:title></dc:title></cc:Work></rdf:RDF></metadata><defs
     id="defs56" /><sodipodi:namedview
     pagecolor="#ffffff"
     bordercolor="#666666"
     borderopacity="1"
     objecttolerance="10"
     gridtolerance="10"
     guidetolerance="10"
     inkscape:pageopacity="0"
     inkscape:pageshadow="2"
     inkscape:window-width="914"
     inkscape:window-height="542"
     id="namedview54"
     showgrid="false"
     inkscape:zoom="7.9126878"
     inkscape:cx="-7.1777119"
     inkscape:cy="25.500184"
     inkscape:window-x="0"
     inkscape:window-y="0"
     inkscape:window-maximized="0"
     inkscape:current-layer="envoyer-logo-on-dark" /><style
     type="text/css"
     id="style2">
 	@-webkit-keyframes pulse {
		50% {
			fill: #f8b3ab;
		}
    }
	@keyframes pulse {
		50% {
			fill: #f8b3ab;
		}
	}
	#smoke {
		transform-origin: 50% 50%;
		-webkit-animation: pulse 3s cubic-bezier(.49,.05,.32,1.04) infinite alternate;
		animation: pulse 3s cubic-bezier(.49,.05,.32,1.04) infinite alternate;
	}
 </style><rect
     id="rect3749"
     width="219.89999"
     height="56.299999"
     x="0"
     y="-7.6293946e-07"
     style="stroke-width:1.00737143;fill:#f56857;fill-opacity:1" /><g
     id="Layer_1"><g
       id="text"><path
         d="m 59,9 c 0.6,-0.3 1.2,-0.5 1.8,-0.6 0.6,-0.1 1,-0.1 1.4,-0.1 0.4,0 2.8,0.1 7.3,0.2 4.5,0.1 7.4,0.3 8.7,0.5 v 4.6 H 63.9 c -1.2,0 -1.9,0.3 -2.2,0.9 -0.2,0.4 -0.3,1.1 -0.3,1.8 v 7 l 14.7,0.5 v 4.6 l -14.7,0.5 v 7 c 0,1.3 0.5,2.1 1.3,2.4 0.4,0.1 1,0.1 1.6,0.1 h 13.9 v 4.5 c -1,0.1 -4.9,0.4 -11.6,0.7 l -3.3,0.1 c -0.3,0 -0.6,0 -0.9,0 -0.3,0 -0.8,0 -1.3,-0.1 -0.5,0 -1.1,-0.2 -1.8,-0.5 C 58.6,42.8 58,42.5 57.5,42 56.3,40.9 55.8,39.2 55.8,37 V 15.1 c 0,-3 1.1,-5.1 3.2,-6.1 z"
         id="path4"
         inkscape:connector-curvature="0"
         style="fill:#ffffff" /><path
         d="m 97.4,26 c 0,-2.6 -1.1,-3.9 -3.4,-3.9 -1.5,0 -2.7,0.2 -3.7,0.6 -1,0.4 -2.2,1 -3.6,1.8 V 43.3 H 81.1 V 17.8 h 4.3 l 1.2,2.8 c 0.1,-0.1 0.4,-0.3 1,-0.7 0.6,-0.4 1.2,-0.8 1.8,-1.1 0.6,-0.3 1.4,-0.7 2.5,-1 1.1,-0.3 2.1,-0.5 3.3,-0.5 2.7,0 4.6,0.8 5.9,2.4 1.2,1.6 1.9,3.7 1.9,6.2 v 17.3 h -5.6 z"
         id="path6"
         inkscape:connector-curvature="0"
         style="fill:#ffffff" /><path
         d="m 103.8,17.8 h 6 l 6.4,18.6 6.6,-18.6 h 6 l -9.6,25.5 h -6 z"
         id="path8"
         inkscape:connector-curvature="0"
         style="fill:#ffffff" /><path
         d="m 131.7,40.7 c -0.9,-1 -1.5,-2.3 -1.9,-3.9 -0.4,-1.6 -0.6,-3.8 -0.6,-6.7 0,-2.9 0.4,-5.3 1.1,-7.2 0.8,-1.9 1.9,-3.3 3.6,-4.1 1.6,-0.8 3.9,-1.2 6.8,-1.2 4.4,0 7.4,1 9,2.9 1.6,1.9 2.5,5.3 2.5,10.2 0,4.9 -0.8,8.3 -2.5,10.1 -1.6,1.8 -4.6,2.7 -9,2.7 -2.2,0 -4,-0.2 -5.5,-0.7 -1.4,-0.4 -2.6,-1.1 -3.5,-2.1 z m 3.6,-15.5 c -0.2,0.7 -0.4,1.4 -0.4,2.4 -0.1,0.9 -0.1,2 -0.1,3.3 0,1.3 0,2.4 0.1,3.2 0.1,0.9 0.3,1.6 0.5,2.2 0.2,0.6 0.5,1 0.8,1.4 0.3,0.4 0.7,0.6 1.2,0.8 0.8,0.3 1.8,0.4 3,0.4 1.2,0 2.1,0 2.6,-0.1 0.5,-0.1 1.1,-0.3 1.6,-0.5 0.5,-0.3 0.9,-0.7 1.2,-1.3 0.5,-1.3 0.8,-2.9 0.8,-4.9 0,-2 0,-3.5 -0.1,-4.4 -0.1,-0.9 -0.2,-1.7 -0.4,-2.4 -0.2,-0.7 -0.4,-1.2 -0.7,-1.5 -0.3,-0.4 -0.6,-0.6 -1.1,-0.8 -0.8,-0.3 -1.8,-0.5 -3,-0.5 -1.2,0 -2.1,0 -2.6,0.1 -0.5,0.1 -1,0.2 -1.5,0.4 -0.5,0.2 -0.9,0.5 -1.2,0.9 -0.2,0.1 -0.5,0.7 -0.7,1.3 z"
         id="path10"
         inkscape:connector-curvature="0"
         style="fill:#ffffff" /><path
         d="m 152.4,17.8 h 5.9 l 5,18.6 c 0.2,0.7 0.4,1.2 0.8,1.4 0.3,0.2 0.6,0.4 0.8,0.4 0.2,0.1 0.4,0.1 0.5,0.1 0.1,0 0.4,0 0.7,0 L 172,17.9 h 5.9 l -9.7,33.6 -3.6,4.9 h -3.8 l 3.9,-13 c -3.5,0 -5.8,-2 -7,-6 z"
         id="path12"
         inkscape:connector-curvature="0"
         style="fill:#ffffff" /><path
         d="m 180.6,20.8 c 1,-1.3 2.2,-2.1 3.6,-2.5 1.4,-0.4 3.1,-0.6 4.9,-0.6 1.8,0 3.1,0 4,0.1 0.8,0.1 1.7,0.2 2.6,0.4 0.9,0.2 1.6,0.5 2.1,0.9 0.5,0.4 1,1 1.4,1.6 0.8,1.2 1.2,3.2 1.2,6.1 0,4.1 -2.3,6.2 -6.9,6.2 h -9.1 c 0,2.5 0.4,4.1 1.2,4.8 0.4,0.4 1,0.7 1.6,0.8 0.6,0.1 2.3,0.2 5.1,0.2 2.8,0 5.3,-0.2 7.6,-0.5 v 3.9 c -2.6,0.9 -6.8,1.3 -12.7,1.3 -3.2,0 -5.4,-1 -6.6,-2.9 -1.2,-1.9 -1.8,-5.3 -1.8,-10.1 0,-4.8 0.6,-8 1.8,-9.7 z m 14.1,5.8 c 0,-1.9 -0.3,-3.1 -0.8,-3.6 -0.5,-0.5 -1.8,-0.8 -3.8,-0.8 -2.5,0 -4,0.3 -4.6,0.9 -0.7,0.7 -1.1,1.6 -1.2,2.6 -0.1,1 -0.1,2 -0.1,3 h 8 c 1.7,0 2.5,-0.7 2.5,-2.1 z"
         id="path14"
         inkscape:connector-curvature="0"
         style="fill:#ffffff" /><path
         d="m 211.1,19.3 c 0.6,-0.4 1.5,-0.8 2.5,-1.2 1.1,-0.4 2.2,-0.6 3.6,-0.6 1.3,0 2.2,0.1 2.7,0.3 v 5.4 c -0.8,-0.1 -2,-0.2 -3.6,-0.2 -1.6,0 -3,0.2 -4.1,0.6 -1.1,0.4 -2.3,1.1 -3.5,2.2 v 17.4 h -5.6 V 17.8 h 4.5 l 1.1,3.2 c 1,-0.7 1.8,-1.3 2.4,-1.7 z"
         id="path16"
         inkscape:connector-curvature="0"
         style="fill:#ffffff" /></g><path
       id="smoke"
       d="m 23.4,48.8 c 1.7,-0.2 3.5,-0.6 5.2,-1.1 l 0.1,-16.2 c -0.1,-0.1 -0.2,-0.2 -0.2,-0.3 -0.6,-0.6 -1.2,-1.1 -1.9,-1.5 -0.6,0.7 -1.2,1.4 -1.8,1.9 -0.4,0.3 -0.8,0.5 -1.2,0.8 z M 12.7,47.6 c 1.7,0.6 3.4,0.9 5.1,1.1 L 17.9,32.2 C 17.5,32 17.1,31.7 16.7,31.4 16,30.9 15.4,30.2 14.9,29.5 14.2,29.9 13.6,30.4 13,31 c -0.1,0.1 -0.2,0.2 -0.3,0.3 v 8.1 0 z"
       inkscape:connector-curvature="0"
       style="clip-rule:evenodd;fill:#ffffff;fill-rule:evenodd" /><path
       id="ship"
       d="m 20.8,0 c -4.2,0 -7.7,6.9 -7.7,15.4 0,0.8 0,1.6 0.1,2.4 -3.3,2.4 -5.5,6.2 -5.5,10.6 0,1.9 0.4,3.6 1.1,5.2 1.3,-3 3.8,-5.5 6.9,-6.8 1.3,2.5 3.1,4 5.1,4 2,0 3.8,-1.5 5.2,-4 3,1.3 5.5,3.8 6.8,6.8 0.7,-1.6 1.1,-3.4 1.1,-5.2 0,-4.4 -2.1,-8.3 -5.4,-10.6 0.1,-0.8 0.1,-1.6 0.1,-2.4 C 28.4,7 25,0 20.8,0 Z m -0.1,10 c 1.9,0 3.4,1.5 3.4,3.4 0,1.9 -1.5,3.4 -3.4,3.4 -1.9,0 -3.4,-1.5 -3.4,-3.4 0.1,-1.9 1.6,-3.4 3.4,-3.4 z"
       inkscape:connector-curvature="0"
       style="clip-rule:evenodd;fill:#ffffff;fill-rule:evenodd" /><path
       id="outer-circle"
       d="M 10.2,40.6 C 7.6,38.3 5.8,35.2 5.1,31.6 3.2,31.4 1.5,31.2 0,31 0.7,37.7 4.6,43.4 10.2,46.7 Z M 5.2,25.2 C 5.5,23.8 6.1,22.4 6.7,21.1 6.9,20.7 7,20.3 7.2,20 8.1,18.2 9.4,16.6 11,15.3 v -0.2 0 c 0,-0.5 0,-1 0,-1.3 0,-1.3 0.1,-2.5 0.2,-3.7 C 5.3,13.2 1,19 0.1,25.8 1.6,25.6 3.3,25.4 5.2,25.2 Z m 25.9,21.4 c 5.5,-3.2 9.4,-9 10.2,-15.7 -1.5,0.2 -3.2,0.5 -5.1,0.6 -0.7,3.6 -2.5,6.7 -5.1,9 z M 41.2,25.8 C 40.3,19 36.1,13.3 30.2,10.2 c 0.1,1.2 0.2,2.4 0.2,3.7 0,0.3 0,0.8 0,1.3 v 0 0.2 c 1.5,1.3 2.8,2.9 3.7,4.7 0.2,0.4 0.4,0.7 0.5,1.1 0.7,1.2 1.2,2.6 1.5,4 1.9,0.2 3.6,0.4 5.1,0.6 z"
       inkscape:connector-curvature="0"
       style="clip-rule:evenodd;fill:#fbcbc7;fill-rule:evenodd" /><g
       id="g22" /><g
       id="g24" /><g
       id="g26" /><g
       id="g28" /><g
       id="g30" /><g
       id="g32" /><g
       id="g34" /><g
       id="g36" /><g
       id="g38" /><g
       id="g40" /><g
       id="g42" /><g
       id="g44" /><g
       id="g46" /><g
       id="g48" /><g
       id="g50" /></g></svg>