<svg version="1.1" id="envoyer-logo-on-dark" xmlns="http://www.w3.org/2000/svg" xmlns:xlink="http://www.w3.org/1999/xlink" x="0px" y="0px" viewBox="0 0 219.9 56.3" enable-background="new 0 0 219.9 56.3" xml:space="preserve">
 <style type="text/css">
 	@-webkit-keyframes pulse {
		50% {
			fill: #f8b3ab;
		}
    }
	@keyframes pulse {
		50% {
			fill: #f8b3ab;
		}
	}
	#smoke {
		transform-origin: 50% 50%;
		-webkit-animation: pulse 3s cubic-bezier(.49,.05,.32,1.04) infinite alternate;
		animation: pulse 3s cubic-bezier(.49,.05,.32,1.04) infinite alternate;
	}
 </style>
<g id="Layer_1">
	<g id="text">
		<path fill="#FFFFFF" d="M59,9c0.6-0.3,1.2-0.5,1.8-0.6c0.6-0.1,1-0.1,1.4-0.1s2.8,0.1,7.3,0.2C74,8.6,76.9,8.8,78.2,9v4.6H63.9
			c-1.2,0-1.9,0.3-2.2,0.9c-0.2,0.4-0.3,1.1-0.3,1.8v7l14.7,0.5v4.6l-14.7,0.5v7c0,1.3,0.5,2.1,1.3,2.4c0.4,0.1,1,0.1,1.6,0.1h13.9
			v4.5c-1,0.1-4.9,0.4-11.6,0.7l-3.3,0.1c-0.3,0-0.6,0-0.9,0s-0.8,0-1.3-0.1c-0.5,0-1.1-0.2-1.8-0.5c-0.7-0.3-1.3-0.6-1.8-1.1
			c-1.2-1.1-1.7-2.8-1.7-5V15.1C55.8,12.1,56.9,10,59,9z"></path>
		<path fill="#FFFFFF" d="M97.4,26c0-2.6-1.1-3.9-3.4-3.9c-1.5,0-2.7,0.2-3.7,0.6c-1,0.4-2.2,1-3.6,1.8v18.8h-5.6V17.8h4.3l1.2,2.8
			c0.1-0.1,0.4-0.3,1-0.7c0.6-0.4,1.2-0.8,1.8-1.1c0.6-0.3,1.4-0.7,2.5-1c1.1-0.3,2.1-0.5,3.3-0.5c2.7,0,4.6,0.8,5.9,2.4
			c1.2,1.6,1.9,3.7,1.9,6.2v17.3h-5.6V26z"></path>
		<path fill="#FFFFFF" d="M103.8,17.8h6l6.4,18.6l6.6-18.6h6l-9.6,25.5h-6L103.8,17.8z"></path>
		<path fill="#FFFFFF" d="M131.7,40.7c-0.9-1-1.5-2.3-1.9-3.9c-0.4-1.6-0.6-3.8-0.6-6.7s0.4-5.3,1.1-7.2c0.8-1.9,1.9-3.3,3.6-4.1
			c1.6-0.8,3.9-1.2,6.8-1.2c4.4,0,7.4,1,9,2.9c1.6,1.9,2.5,5.3,2.5,10.2c0,4.9-0.8,8.3-2.5,10.1c-1.6,1.8-4.6,2.7-9,2.7
			c-2.2,0-4-0.2-5.5-0.7C133.8,42.4,132.6,41.7,131.7,40.7z M135.3,25.2c-0.2,0.7-0.4,1.4-0.4,2.4c-0.1,0.9-0.1,2-0.1,3.3
			c0,1.3,0,2.4,0.1,3.2c0.1,0.9,0.3,1.6,0.5,2.2c0.2,0.6,0.5,1,0.8,1.4s0.7,0.6,1.2,0.8c0.8,0.3,1.8,0.4,3,0.4c1.2,0,2.1,0,2.6-0.1
			c0.5-0.1,1.1-0.3,1.6-0.5c0.5-0.3,0.9-0.7,1.2-1.3c0.5-1.3,0.8-2.9,0.8-4.9c0-2,0-3.5-0.1-4.4c-0.1-0.9-0.2-1.7-0.4-2.4
			c-0.2-0.7-0.4-1.2-0.7-1.5c-0.3-0.4-0.6-0.6-1.1-0.8c-0.8-0.3-1.8-0.5-3-0.5c-1.2,0-2.1,0-2.6,0.1c-0.5,0.1-1,0.2-1.5,0.4
			c-0.5,0.2-0.9,0.5-1.2,0.9C135.8,24,135.5,24.6,135.3,25.2z"></path>
		<path fill="#FFFFFF" d="M152.4,17.8h5.9l5,18.6c0.2,0.7,0.4,1.2,0.8,1.4c0.3,0.2,0.6,0.4,0.8,0.4c0.2,0.1,0.4,0.1,0.5,0.1
			s0.4,0,0.7,0l5.9-20.4h5.9l-9.7,33.6l-3.6,4.9h-3.8l3.9-13c-3.5,0-5.8-2-7-6L152.4,17.8z"></path>
		<path fill="#FFFFFF" d="M180.6,20.8c1-1.3,2.2-2.1,3.6-2.5c1.4-0.4,3.1-0.6,4.9-0.6c1.8,0,3.1,0,4,0.1c0.8,0.1,1.7,0.2,2.6,0.4
			c0.9,0.2,1.6,0.5,2.1,0.9c0.5,0.4,1,1,1.4,1.6c0.8,1.2,1.2,3.2,1.2,6.1c0,4.1-2.3,6.2-6.9,6.2h-9.1c0,2.5,0.4,4.1,1.2,4.8
			c0.4,0.4,1,0.7,1.6,0.8c0.6,0.1,2.3,0.2,5.1,0.2c2.8,0,5.3-0.2,7.6-0.5v3.9c-2.6,0.9-6.8,1.3-12.7,1.3c-3.2,0-5.4-1-6.6-2.9
			c-1.2-1.9-1.8-5.3-1.8-10.1S179.4,22.5,180.6,20.8z M194.7,26.6c0-1.9-0.3-3.1-0.8-3.6c-0.5-0.5-1.8-0.8-3.8-0.8
			c-2.5,0-4,0.3-4.6,0.9c-0.7,0.7-1.1,1.6-1.2,2.6c-0.1,1-0.1,2-0.1,3h8C193.9,28.7,194.7,28,194.7,26.6z"></path>
		<path fill="#FFFFFF" d="M211.1,19.3c0.6-0.4,1.5-0.8,2.5-1.2c1.1-0.4,2.2-0.6,3.6-0.6c1.3,0,2.2,0.1,2.7,0.3v5.4
			c-0.8-0.1-2-0.2-3.6-0.2s-3,0.2-4.1,0.6c-1.1,0.4-2.3,1.1-3.5,2.2v17.4h-5.6V17.8h4.5l1.1,3.2C209.7,20.3,210.5,19.7,211.1,19.3z"></path>
	</g>
	<path fill-rule="evenodd" clip-rule="evenodd" fill="#FFFFFF" id="smoke" d="M23.4,48.8c1.7-0.2,3.5-0.6,5.2-1.1l0.1-16.2
		c-0.1-0.1-0.2-0.2-0.2-0.3c-0.6-0.6-1.2-1.1-1.9-1.5c-0.6,0.7-1.2,1.4-1.8,1.9c-0.4,0.3-0.8,0.5-1.2,0.8L23.4,48.8L23.4,48.8z
		 M12.7,47.6c1.7,0.6,3.4,0.9,5.1,1.1l0.1-16.5c-0.4-0.2-0.8-0.5-1.2-0.8c-0.7-0.5-1.3-1.2-1.8-1.9c-0.7,0.4-1.3,0.9-1.9,1.5
		c-0.1,0.1-0.2,0.2-0.3,0.3l0,8.1h0V47.6z"></path>
	<path fill-rule="evenodd" clip-rule="evenodd" fill="#FFFFFF" id="ship" d="M20.8,0c-4.2,0-7.7,6.9-7.7,15.4c0,0.8,0,1.6,0.1,2.4
		c-3.3,2.4-5.5,6.2-5.5,10.6c0,1.9,0.4,3.6,1.1,5.2c1.3-3,3.8-5.5,6.9-6.8c1.3,2.5,3.1,4,5.1,4c2,0,3.8-1.5,5.2-4
		c3,1.3,5.5,3.8,6.8,6.8c0.7-1.6,1.1-3.4,1.1-5.2c0-4.4-2.1-8.3-5.4-10.6c0.1-0.8,0.1-1.6,0.1-2.4C28.4,7,25,0,20.8,0L20.8,0z
		 M20.7,10c1.9,0,3.4,1.5,3.4,3.4c0,1.9-1.5,3.4-3.4,3.4c-1.9,0-3.4-1.5-3.4-3.4C17.4,11.5,18.9,10,20.7,10z"></path>
	<path fill-rule="evenodd" clip-rule="evenodd" fill="#FBCBC7" id="outer-circle" d="M10.2,40.6c-2.6-2.3-4.4-5.4-5.1-9C3.2,31.4,1.5,31.2,0,31
		c0.7,6.7,4.6,12.4,10.2,15.7V40.6L10.2,40.6z M5.2,25.2c0.3-1.4,0.9-2.8,1.5-4.1c0.2-0.4,0.3-0.8,0.5-1.1c0.9-1.8,2.2-3.4,3.8-4.7
		l0-0.2l0,0c0-0.5,0-1,0-1.3c0-1.3,0.1-2.5,0.2-3.7C5.3,13.2,1,19,0.1,25.8C1.6,25.6,3.3,25.4,5.2,25.2L5.2,25.2z M31.1,46.6
		c5.5-3.2,9.4-9,10.2-15.7c-1.5,0.2-3.2,0.5-5.1,0.6c-0.7,3.6-2.5,6.7-5.1,9V46.6L31.1,46.6z M41.2,25.8c-0.9-6.8-5.1-12.5-11-15.6
		c0.1,1.2,0.2,2.4,0.2,3.7c0,0.3,0,0.8,0,1.3l0,0l0,0.2c1.5,1.3,2.8,2.9,3.7,4.7c0.2,0.4,0.4,0.7,0.5,1.1c0.7,1.2,1.2,2.6,1.5,4
		C38,25.4,39.7,25.6,41.2,25.8z"></path>
	<g>
	</g>
	<g>
	</g>
	<g>
	</g>
	<g>
	</g>
	<g>
	</g>
	<g>
	</g>
	<g>
	</g>
	<g>
	</g>
	<g>
	</g>
	<g>
	</g>
	<g>
	</g>
	<g>
	</g>
	<g>
	</g>
	<g>
	</g>
	<g>
	</g>
</g>
</svg>
